<svg width="24" height="24" viewBox="0 0 24 24" xmlns="http://www.w3.org/2000/svg">
  <path fill="#25D366" d="M12 2C6.5 2 2 6.5 2 12c0 1.8.5 3.5 1.3 5L2 22l5.2-1.3c1.4.8 3 1.3 4.8 1.3 5.5 0 10-4.5 10-10S17.5 2 12 2z"/>
  <path fill="#fff" d="M16.6 14.4c-.3-.1-1.6-.8-1.9-.9-.3-.1-.5-.1-.7.1-.2.3-.8.9-1 1.1-.2.2-.4.2-.7.1-.3-.1-1.3-.5-2.5-1.5-.9-.8-1.5-1.8-1.7-2.1-.2-.3 0-.5.1-.6.1-.1.3-.3.4-.5.1-.2.2-.3.2-.5.1-.2 0-.4 0-.5s-.7-1.7-.9-2.3c-.2-.6-.5-.5-.7-.5h-.6c-.2 0-.5.1-.8.4-.3.3-1.1 1.1-1.1 2.6s1.1 3 1.3 3.2c.2.2 2.1 3.2 5.1 4.5.7.3 1.3.5 1.7.6.7.2 1.4.2 1.9.1.6-.1 1.6-.7 1.8-1.3.2-.6.2-1.2.2-1.3 0-.2-.2-.3-.5-.4z"/>
</svg>
